<?xml version="1.0" encoding="UTF-8"?><!DOCTYPE svg PUBLIC "-//W3C//DTD SVG 1.1//EN" "http://www.w3.org/Graphics/SVG/1.1/DTD/svg11.dtd"><svg xmlns="http://www.w3.org/2000/svg" xmlns:xlink="http://www.w3.org/1999/xlink" xmlns:figma="http://www.figma.com/figma/ns"><defs><path id="icon-check-a" d="M20 10c0 5.523-4.477 10-10 10S0 15.523 0 10 4.477 0 10 0s10 4.477 10 10z"/><path id="icon-check-b" fill-rule="evenodd" d="M9.633.199a1.5 1.5 0 0 0-2.047.555L3.968 7.063 2.795 5.057a1.5 1.5 0 1 0-2.59 1.514l2.333 3.991c.15.255.363.45.608.576a1.5 1.5 0 0 0 2.203-.453l4.84-8.439A1.5 1.5 0 0 0 9.632.2z"/><path id="icon-error-a" d="M20 10c0 5.523-4.477 10-10 10S0 15.523 0 10 4.477 0 10 0s10 4.477 10 10z"/><path id="icon-error-b" fill-rule="evenodd" d="M.44.44a1.5 1.5 0 0 0 0 2.12l2.378 2.38L.44 7.318A1.5 1.5 0 1 0 2.561 9.44L4.94 7.06l2.378 2.38A1.5 1.5 0 1 0 9.44 7.318L7.06 4.94l2.38-2.38A1.5 1.5 0 0 0 7.318.44L4.94 2.817 2.56.44a1.5 1.5 0 0 0-2.12 0z"/></defs><symbol id="icon-check" viewBox="0 0 20 20"><title>icon-check</title><desc>Created using Figma</desc><g figma:type="canvas"><g figma:type="frame"><use xlink:href="#icon-check-a" fill="#8FDD3B" figma:type="ellipse"/><use xlink:href="#icon-check-b" transform="translate(5 4)" fill="#FFF" figma:type="vector-operation"/></g></g></symbol><symbol id="icon-cross" viewBox="0 0 32 32"><path d="M26.96 1.504L16 12.464 5.04 1.504 1.504 5.04 12.464 16 1.504 26.96l3.536 3.536L16 19.536l10.96 10.96 3.536-3.536L19.536 16l10.96-10.96-3.536-3.536z" fill-rule="nonzero"/></symbol><symbol id="icon-error" viewBox="0 0 20 20"><title>icon-error</title><desc>Created using Figma</desc><g figma:type="canvas"><g figma:type="frame"><use xlink:href="#icon-error-a" fill="#EB5757" figma:type="ellipse"/><use xlink:href="#icon-error-b" transform="translate(5 5)" fill="#FFF" figma:type="vector-operation"/></g></g></symbol></svg>